# xmcd
#
# Track frame offsets:
#	150
#	9056
#	23052
#	33364
#	43631
#	52649
#	64940
#	73283
#	82920
#	91749
#	102375
#	113850
#	125550
#	136781
#	147757
#
# Disc length: 2134 seconds
# Revision: 0
# Processed by: cddbd v1.5.2PL0 Copyright (c) Steve Scherf et al.
# Submitted via: dBpowerAMP V12.0
#
DISCID=b908540f
DTITLE=Bo Diddley - Bo Diddley's a Twister
DYEAR=1962
DGENRE=Blues
TTITLE0=Detour
TTITLE1=She's Alright
TTITLE2=Doin' the Jaguar
TTITLE3=Who Do You Love
TTITLE4=Shank
TTITLE5=Road Runner
TTITLE6=My Babe
TTITLE7=The Twister 
TTITLE8=Hey, Bo Diddley
TTITLE9=Hush Your Mouth
TTITLE10=Bo Diddley 
TTITLE11=I'm Looking for a Woman
TTITLE12=Here 'Tis
TTITLE13=I Know 
TTITLE14=Greatest Lover in The World [Bonus Track 1962]
EXTD=
EXTT0=
EXTT1=
EXTT2=
EXTT3=
EXTT4=
EXTT5=
EXTT6=
EXTT7=
EXTT8=
EXTT9=
EXTT10=
EXTT11=
EXTT12=
EXTT13=
EXTT14=
PLAYORDER=
